<?xml version="1.0" encoding="utf-8"?>
<!-- Generator: Adobe Illustrator 24.2.3, SVG Export Plug-In . SVG Version: 6.00 Build 0)  -->
<svg version="1.2" baseProfile="tiny" id="g-map_forest-mobile-interactions-img" xmlns="http://www.w3.org/2000/svg" xmlns:xlink="http://www.w3.org/1999/xlink"
	 x="0px" y="0px" viewBox="0 0 375 602.198" overflow="visible" xml:space="preserve">
<g>
	<path id="trail_3_" fill="none" stroke="#E67C1D" stroke-width="3.6383" stroke-linecap="round" stroke-linejoin="round" d="
		M333.161,35.747l-5.135,11.916l2.574,6.979h-3.431l-0.858,6.107l-1.715,4.362l-0.167-0.258l-1.549-0.614l-4.289-1.745l-1.438,0.176
		l-1.134,1.569l-0.858,6.979l-6.861-4.362l-6.005,2.618l-2.573,2.617l-1.716,2.618v3.489v2.617h-3.431l-3.431,1.745l-0.186,0.486
		l0.186,1.259l-0.857,8.724l-6.004-0.873h-6.005l-3.431-0.873l-3.43,1.745l-3.431,10.469l-9.435-2.618l-2.574,0.873l-1.716,0.873
		h-2.573h-3.431l-2.573-0.873l-2.574-0.873h-3.431l-2.573,1.745v4.362l-1.716,2.618l-0.858,2.617v2.618l-0.857,2.617l0.857,2.618
		l-0.857,1.744l-1.716,2.618l-0.857,2.617l-1.716,2.618l-2.574,2.617v2.618l-2.573,2.617l-0.858,1.745l-0.857,2.618v2.617v2.618
		v2.617l-1.716,2.618l-1.716,1.744l-1.716,1.745l-1.716,1.744l-2.573,0.873l-2.574,1.745l-1.716,0.873h-2.573l-2.573-0.873
		l-3.431-0.873h-3.431l-3.431,1.745l-1.716,2.617l-2.573,1.745l-1.716,6.979l4.288,11.34l-4.288,7.852l-4.289,10.469v9.596
		l0.858,2.617l2.573-0.873l1.716-0.872l2.574-0.873l2.573-0.873h2.573h2.574h2.573l2.574,0.873l0.857,2.617v2.618l-0.857,2.617
		l2.573-0.873l-2.573,0.873l-2.574,2.618l-3.431-0.873l-2.573-0.873l-2.573,0.873l-1.716,2.617l-1.716,1.745l-2.574,1.745
		l-0.857,1.744l-1.716-1.744l-2.573,0.873l-1.716,2.617l-2.574,1.745l-1.716,1.744h-2.573l-2.574-0.872l-0.857-1.745l-2.573-1.745
		h-2.574l-2.573-1.744l-1.716-0.873l-2.574-0.872l-2.573-1.745l-0.857-2.617l-0.858-2.618l-0.857-1.744v-3.49l-1.716-1.744
		l-1.716-2.618l-1.716-0.873l-1.716-2.617l-1.716-1.745l-1.716-3.489l-1.716-1.745v-2.617l-1.716-2.618l-1.716-2.617l-0.857-1.745
		l-2.574-2.617l-1.716-1.745l-2.573-0.873l-1.716-1.744l-1.716-2.618l-0.857-2.617l-1.716-1.745v-2.618l-0.858-2.617l-1.716-2.618
		l-0.857-2.617l-1.716-2.618l-1.716-1.744l-1.716-1.745l-2.573-1.745l-1.716-1.744l-1.716-1.745l-2.574-1.744l-1.716-1.745
		l-0.857-2.618l-2.573-2.617l-2.574-0.873l-2.573-0.873h-2.574l-2.573-1.744l-2.573-1.745l-0.858-1.745l-1.716-0.873l-2.573-1.744
		l-1.716-1.745l-1.716-2.617l-2.573-0.873l-1.716-2.618l2.573,0.873h-2.573l-2.574-1.745l-2.573-1.744l-1.716-1.745l-2.574-0.873
		l1.716-2.617l-0.857-2.618l-2.573-0.873l-0.858-2.617l-1.716-2.618l-1.716-2.617l-4.288-2.618l-4.288-0.872l-4.289-3.49
		l-5.147-1.744l-4.288-4.363l-5.147,0.873l-10.292,0.873l11.151,6.979l7.719,2.617l2.573,3.49v4.362l-0.857,4.362l1.716,4.362
		l5.147,1.745l5.146,3.489l-2.573,0.873l-0.857,6.979l-8.578,5.234l-3.431,23.554l24.875,15.703h5.146l2.574,10.469l12.008,9.596
		l5.147,15.703l2.573-4.362l13.724,29.661l3.431,1.744l3.431,2.618l2.573,5.234v4.362h3.431l-0.857,3.489l1.715,2.618l1.716,2.617
		v6.107l6.005,1.745l3.431,2.617l1.715,2.618l2.574,0.872l-0.858,2.618l-2.573,1.745h3.431l2.573,1.744l0.858,3.489l2.573,2.618
		l2.574,3.489l0.857,4.362l0.857,3.49v2.617l1.716,2.618h2.574l3.431,2.617l3.431,2.618v4.362v4.362l1.715,3.489l-0.857,2.618v2.617
		l1.716,2.617l2.573,1.745l0.858,2.618l0.857,3.489l0.858,3.489l1.716,1.745l1.716,2.617l1.716,2.618l0.857,2.617v3.489l0.857,2.618
		v2.617l-0.857,1.745l-0.857,2.618l-1.716,1.744l-1.716,2.618l5.146-0.873l2.481,3.613l6.711,9.287l10.537,15.016l1.716,1.745
		l1.716,1.744l1.716,2.618l1.716,2.617l1.716,2.618l1.716,2.617l2.573,2.618v3.489l-0.857,2.617l-2.574,1.745l-1.716,0.872
		l-2.573,1.744"/>
	<path id="icon-waterfall_2_" fill="#E67C1D" d="M343.951,29.211c0,3.761-3.049,6.811-6.811,6.811s-6.811-3.049-6.811-6.811
		s3.049-6.811,6.811-6.811S343.951,25.45,343.951,29.211z"/>
	<path id="icon-descent_2_" fill="#E67C1D" d="M331.086,67.048c0,3.761-3.049,6.811-6.811,6.811s-6.811-3.049-6.811-6.811
		c0-3.761,3.049-6.811,6.811-6.811S331.086,63.287,331.086,67.048z"/>
	<path id="icon-watersound_1_" fill="#E67C1D" d="M293.25,86.981l7.567,13.107h-15.135L293.25,86.981z"/>
	<path id="icon-frogs_1_" fill="#E67C1D" d="M125.889,276.955l7.567,13.107h-15.135L125.889,276.955z"/>
	<path id="icon-caracas_2_" fill="#E67C1D" d="M277.358,92.777c0,3.761-3.049,6.811-6.811,6.811s-6.811-3.049-6.811-6.811
		s3.049-6.811,6.811-6.811S277.358,89.016,277.358,92.777z"/>
	<path id="icon-trunk_2_" fill="#E67C1D" d="M233.467,131.371c0,3.761-3.049,6.811-6.811,6.811s-6.811-3.049-6.811-6.811
		c0-3.761,3.049-6.811,6.811-6.811S233.467,127.61,233.467,131.371z"/>
	<path id="icon-shortcut_1_" fill="#E67C1D" d="M210.765,218.396c0,3.761-3.049,6.811-6.811,6.811s-6.811-3.049-6.811-6.811
		s3.049-6.811,6.811-6.811S210.765,214.634,210.765,218.396z"/>
	<path id="icon-plain_1_" fill="#E67C1D" d="M160.82,224.45c0,3.761-3.049,6.811-6.811,6.811s-6.811-3.049-6.811-6.811
		s3.049-6.811,6.811-6.811S160.82,220.688,160.82,224.45z"/>
	<path id="icon-stairs_1_" fill="#E67C1D" d="M35.202,95.048c0,3.761-3.049,6.811-6.811,6.811s-6.811-3.049-6.811-6.811
		s3.049-6.811,6.811-6.811S35.202,91.286,35.202,95.048z"/>
	<path id="icon-water_1_" fill="#E67C1D" d="M55.634,120.277l7.567,13.107H48.066L55.634,120.277z"/>
	<path id="icon-tree_2_" fill="#E67C1D" d="M70.012,180.559c0,3.761-3.049,6.811-6.811,6.811s-6.811-3.049-6.811-6.811
		s3.049-6.811,6.811-6.811S70.012,176.798,70.012,180.559z"/>
	<path id="icon-forest_1_" fill="#E67C1D" d="M96.498,216.882c0,3.761-3.049,6.811-6.811,6.811s-6.811-3.049-6.811-6.811
		s3.049-6.811,6.811-6.811S96.498,213.121,96.498,216.882z"/>
	<path id="icon-crossroads_2_" fill="#E67C1D" d="M119.926,257.366c0,3.761-3.049,6.811-6.811,6.811s-6.811-3.049-6.811-6.811
		c0-3.761,3.049-6.811,6.811-6.811S119.926,253.605,119.926,257.366z"/>
	<path id="icon-cocada_1_" fill="#E67C1D" d="M157.037,304.664c0,3.761-3.049,6.811-6.811,6.811s-6.811-3.049-6.811-6.811
		s3.049-6.811,6.811-6.811S157.037,300.903,157.037,304.664z"/>
	<path id="icon-mural_1_" fill="#E67C1D" d="M173.685,367.473c0,3.761-3.049,6.811-6.811,6.811s-6.811-3.049-6.811-6.811
		s3.049-6.811,6.811-6.811S173.685,363.712,173.685,367.473z"/>
	<path id="icon-entrance_2_" fill="#E67C1D" d="M203.954,421.958c0,3.761-3.049,6.811-6.811,6.811s-6.811-3.049-6.811-6.811
		s3.049-6.811,6.811-6.811S203.954,418.197,203.954,421.958z"/>
</g>
<style>
#g-map_forest-mobile-interactions-img rect, #g-map_forest-mobile-interactions-img circle, #g-map_forest-mobile-interactions-img path, #g-map_forest-mobile-interactions-img line, #g-map_forest-mobile-interactions-img polyline, #g-map_forest-mobile-interactions-img polygon { vector-effect: non-scaling-stroke; }
</style>
</svg>

