<?xml version="1.0" encoding="utf-8"?>
<!-- Generator: Adobe Illustrator 24.2.3, SVG Export Plug-In . SVG Version: 6.00 Build 0)  -->
<svg version="1.2" baseProfile="tiny" id="g-map_forest-desktop-interactions-img" xmlns="http://www.w3.org/2000/svg" xmlns:xlink="http://www.w3.org/1999/xlink"
	 x="0px" y="0px" viewBox="0 0 833 600.565" overflow="visible" xml:space="preserve">
<g>
	<path id="trail_3_" fill="none" stroke="#E67C1D" stroke-width="5" stroke-linecap="round" stroke-linejoin="round" d="M540.5,49.5
		l-7.057,16.376l3.537,9.591h-4.715l-1.179,8.393l-2.357,5.994L528.5,89.5l-2.129-0.844l-5.895-2.398L518.5,86.5l-1.559,2.156
		l-1.179,9.591l-9.429-5.994l-8.252,3.597l-3.536,3.596l-2.358,3.597v4.795v3.596h-4.715l-4.715,2.398L482.5,114.5l0.256,1.731
		l-1.178,11.989l-8.251-1.199h-8.252l-4.715-1.199l-4.714,2.398l-4.715,14.387l-12.966-3.597l-3.537,1.199l-2.358,1.199h-3.536
		h-4.715l-3.536-1.199l-3.537-1.199h-4.715l-3.536,2.398v5.994l-2.358,3.597l-1.179,3.596v3.597l-1.178,3.596l1.178,3.597
		l-1.178,2.397l-2.358,3.597l-1.178,3.596l-2.358,3.597l-3.537,3.596v3.597l-3.536,3.596l-1.179,2.398l-1.178,3.597v3.596v3.597
		v3.596l-2.358,3.597l-2.358,2.397l-2.358,2.398l-2.358,2.397l-3.536,1.199l-3.537,2.398l-2.358,1.199h-3.536l-3.536-1.199
		l-4.715-1.199h-4.715l-4.715,2.398l-2.358,3.596l-3.536,2.398l-2.358,9.592l5.893,15.585l-5.893,10.791l-5.895,14.387v13.188
		l1.179,3.596l3.536-1.199l2.358-1.198l3.537-1.199l3.536-1.199h3.536h3.537h3.536l3.537,1.199l1.178,3.596v3.597l-1.178,3.596
		l3.536-1.199l-3.536,1.199l-3.537,3.597l-4.715-1.199l-3.536-1.199l-3.536,1.199l-2.358,3.596l-2.358,2.398l-3.537,2.398
		l-1.178,2.397l-2.358-2.397l-3.536,1.199l-2.358,3.596l-3.537,2.398l-2.358,2.397h-3.536l-3.537-1.198l-1.178-2.398l-3.536-2.398
		h-3.537l-3.536-2.397l-2.358-1.199l-3.537-1.199l-3.536-2.398l-1.178-3.596l-1.179-3.597l-1.178-2.397v-4.796l-2.358-2.397
		l-2.358-3.597l-2.358-1.199l-2.358-3.596l-2.358-2.398l-2.358-4.795l-2.358-2.398v-3.596l-2.358-3.597l-2.358-3.596l-1.178-2.398
		l-3.537-3.596l-2.358-2.398l-3.536-1.199l-2.358-2.397l-2.358-3.597l-1.178-3.596l-2.358-2.398v-3.597l-1.179-3.596l-2.358-3.597
		l-1.178-3.596l-2.358-3.597l-2.358-2.397l-2.358-2.398l-3.536-2.398l-2.358-2.397l-2.358-2.398l-3.537-2.397l-2.358-2.398
		l-1.178-3.597l-3.536-3.596l-3.537-1.199l-3.536-1.199h-3.537l-3.536-2.397l-3.536-2.398l-1.179-2.398l-2.358-1.199l-3.536-2.397
		l-2.358-2.398l-2.358-3.596l-3.536-1.199l-2.358-3.597l3.536,1.199h-3.536l-3.537-2.398l-3.536-2.397l-2.358-2.398l-3.537-1.199
		l2.358-3.596l-1.178-3.597l-3.536-1.199l-1.179-3.596l-2.358-3.597l-2.358-3.596l-5.893-3.597l-5.894-1.198l-5.895-4.796
		l-7.073-2.397l-5.894-5.995l-7.073,1.199l-14.145,1.199l15.324,9.592l10.609,3.596l3.536,4.796v5.994l-1.178,5.994l2.358,5.994
		l7.073,2.398l7.072,4.795l-3.536,1.199l-1.178,9.592l-11.788,7.193l-4.715,32.37l34.185,21.58h7.072l3.537,14.387l16.502,13.188
		l7.073,21.58l3.536-5.994l18.861,40.763l4.715,2.397l4.715,3.597l3.536,7.193v5.994h4.715l-1.178,4.795l2.357,3.597l2.358,3.596
		v8.393l8.252,2.398l4.715,3.596l2.357,3.597l3.537,1.198l-1.179,3.597l-3.536,2.398h4.715l3.536,2.397l1.179,4.795l3.536,3.597
		l3.537,4.795l1.178,5.994l1.178,4.796v3.596l2.358,3.597h3.537l4.715,3.596l4.715,3.597v5.994v5.994l2.357,4.795l-1.178,3.597
		v3.596l2.358,3.596l3.536,2.398l1.179,3.597l1.178,4.795l1.179,4.795l2.358,2.398l2.358,3.596l2.358,3.597l1.178,3.596v4.795
		l1.178,3.597v3.596l-1.178,2.398l-1.178,3.597l-2.358,2.397l-2.358,3.597l7.072-1.199l3.409,4.966l9.222,12.763l14.481,20.636
		l2.358,2.398l2.358,2.397l2.358,3.597l2.358,3.596l2.358,3.597l2.358,3.596l3.536,3.597v4.795l-1.178,3.596l-3.537,2.398
		l-2.358,1.199l-3.536,2.397"/>
	<path id="icon-waterfall_2_" fill="#E67C1D" d="M555.328,40.519c0,5.169-4.19,9.36-9.36,9.36c-5.169,0-9.36-4.19-9.36-9.36
		s4.19-9.36,9.36-9.36C551.138,31.159,555.328,35.35,555.328,40.519z"/>
	<path id="icon-descent_2_" fill="#E67C1D" d="M537.649,92.517c0,5.169-4.19,9.36-9.36,9.36s-9.36-4.19-9.36-9.36
		s4.19-9.36,9.36-9.36S537.649,87.348,537.649,92.517z"/>
	<path id="icon-watersound_1_" fill="#E67C1D" d="M485.65,86.91l10.4,18.012h-20.799L485.65,86.91z"/>
	<path id="icon-frogs_1_" fill="#E67C1D" d="M255.65,380.988L266.05,399h-20.799L255.65,380.988z"/>
	<path id="icon-caracas_2_" fill="#E67C1D" d="M463.811,127.876c0,5.169-4.19,9.36-9.36,9.36c-5.169,0-9.36-4.19-9.36-9.36
		s4.19-9.36,9.36-9.36C459.621,118.516,463.811,122.707,463.811,127.876z"/>
	<path id="icon-trunk_2_" fill="#E67C1D" d="M403.493,180.915c0,5.169-4.19,9.36-9.36,9.36s-9.36-4.19-9.36-9.36
		s4.19-9.36,9.36-9.36S403.493,175.745,403.493,180.915z"/>
	<path id="icon-shortcut_1_" fill="#E67C1D" d="M372.294,300.511c0,5.169-4.19,9.36-9.36,9.36s-9.36-4.19-9.36-9.36
		c0-5.169,4.19-9.36,9.36-9.36S372.294,295.342,372.294,300.511z"/>
	<path id="icon-plain_1_" fill="#E67C1D" d="M303.656,308.831c0,5.169-4.19,9.36-9.36,9.36s-9.36-4.19-9.36-9.36
		s4.19-9.36,9.36-9.36S303.656,303.662,303.656,308.831z"/>
	<path id="icon-stairs_1_" fill="#E67C1D" d="M131.021,130.996c0,5.169-4.19,9.36-9.36,9.36c-5.169,0-9.36-4.19-9.36-9.36
		c0-5.169,4.19-9.36,9.36-9.36C126.831,121.636,131.021,125.827,131.021,130.996z"/>
	<path id="icon-water_1_" fill="#E67C1D" d="M159.1,165.669l10.4,18.012h-20.799L159.1,165.669z"/>
	<path id="icon-tree_2_" fill="#E67C1D" d="M178.86,248.513c0,5.169-4.19,9.36-9.36,9.36s-9.36-4.191-9.36-9.36
		c0-5.169,4.19-9.36,9.36-9.36S178.86,243.343,178.86,248.513z"/>
	<path id="icon-forest_1_" fill="#E67C1D" d="M215.258,298.431c0,5.169-4.19,9.36-9.36,9.36s-9.36-4.19-9.36-9.36
		s4.19-9.36,9.36-9.36S215.258,293.262,215.258,298.431z"/>
	<path id="icon-crossroads_2_" fill="#E67C1D" d="M247.456,354.067c0,5.169-4.19,9.36-9.36,9.36c-5.169,0-9.36-4.19-9.36-9.36
		s4.19-9.36,9.36-9.36C243.266,344.708,247.456,348.898,247.456,354.067z"/>
	<path id="icon-cocada_1_" fill="#E67C1D" d="M298.456,419.067c0,5.169-4.19,9.36-9.36,9.36c-5.169,0-9.36-4.19-9.36-9.36
		s4.19-9.36,9.36-9.36C294.266,409.708,298.456,413.898,298.456,419.067z"/>
	<path id="icon-mural_1_" fill="#E67C1D" d="M321.335,505.385c0,5.169-4.19,9.36-9.36,9.36c-5.169,0-9.36-4.191-9.36-9.36
		s4.19-9.36,9.36-9.36C317.145,496.025,321.335,500.216,321.335,505.385z"/>
	<path id="icon-entrance_2_" fill="#E67C1D" d="M360.934,586.263c0,5.169-4.19,9.36-9.36,9.36c-5.169,0-9.36-4.19-9.36-9.36
		c0-5.169,4.19-9.36,9.36-9.36C356.744,576.903,360.934,581.093,360.934,586.263z"/>
</g>
<style>
#g-map_forest-desktop-interactions-img rect, #g-map_forest-desktop-interactions-img circle, #g-map_forest-desktop-interactions-img path, #g-map_forest-desktop-interactions-img line, #g-map_forest-desktop-interactions-img polyline, #g-map_forest-desktop-interactions-img polygon { vector-effect: non-scaling-stroke; }
</style>
</svg>

